<svg xmlns="http://www.w3.org/2000/svg" xmlns:xlink="http://www.w3.org/1999/xlink" viewBox="0 0 1500 560"><defs><style>.cls-1,.cls-2,.cls-20{fill:none;}.cls-2,.cls-20{stroke:#fff;}.cls-2{stroke-miterlimit:10;stroke-width:2.5px;}.cls-3{fill:#fff;}.cls-19,.cls-4{fill:#47474c;}.cls-18,.cls-4{opacity:0.15;}.cls-5{fill:url(#Gradiente_sem_nome_701);}.cls-6{fill:url(#Gradiente_sem_nome_580);}.cls-7{mask:url(#mask);}.cls-8{opacity:0.5;}.cls-9{fill:url(#Gradiente_sem_nome_613);}.cls-10{mask:url(#mask-2);}.cls-11{fill:url(#Gradiente_sem_nome_613-2);}.cls-12{mask:url(#mask-3);}.cls-13{fill:url(#Gradiente_sem_nome_613-3);}.cls-14{mask:url(#mask-4);}.cls-15{fill:url(#Gradiente_sem_nome_613-4);}.cls-16{mask:url(#mask-5);}.cls-17{fill:url(#Gradiente_sem_nome_613-5);}.cls-20{stroke-linecap:round;stroke-linejoin:round;stroke-width:30px;}.cls-21{fill:url(#Gradiente_sem_nome_380);}</style><linearGradient id="Gradiente_sem_nome_701" x1="750" y1="490.22" x2="750" y2="38.22" gradientUnits="userSpaceOnUse"><stop offset="0" stop-color="#36363b"/><stop offset="1" stop-color="#515157"/></linearGradient><linearGradient id="Gradiente_sem_nome_580" x1="750" y1="459.22" x2="750" y2="59.22" gradientUnits="userSpaceOnUse"><stop offset="0" stop-color="#adadb9"/><stop offset="1" stop-color="#d9d9e1"/></linearGradient><mask id="mask" x="-131.25" y="-82.03" width="491.25" height="712.5" maskUnits="userSpaceOnUse"><path class="cls-1" d="M76.07,459C55.27,457,40,438.39,40,417.49v-70.6c0-29.82,17.91-47.67,40-47.67H197.17c42.57,0,79.8-32.05,82.65-74.52A80.09,80.09,0,0,0,200,139.22H81.72c-20.89,0-39.55-15.27-41.53-36.07A40,40,0,0,1,80,59.22H195.36c86.05,0,160.2,66,164.44,151.93C364.34,303,290.9,379.22,200,379.22H125a5,5,0,0,0-5,5v35A40,40,0,0,1,76.07,459Z"/><circle class="cls-2" cx="80" cy="419.22" r="30"/><circle class="cls-2" cx="80" cy="419.22" r="60"/><circle class="cls-2" cx="80" cy="419.22" r="90"/><circle class="cls-2" cx="80" cy="419.22" r="120"/><circle class="cls-2" cx="80" cy="419.22" r="150"/><circle class="cls-2" cx="80" cy="419.22" r="180"/><circle class="cls-2" cx="80" cy="419.22" r="210"/><circle class="cls-3" cx="80" cy="419.22" r="3.75"/><circle class="cls-2" cx="80" cy="99.22" r="30"/><circle class="cls-2" cx="80" cy="99.22" r="60"/><circle class="cls-2" cx="80" cy="99.22" r="90"/><circle class="cls-2" cx="80" cy="99.22" r="120"/><circle class="cls-2" cx="80" cy="99.22" r="150"/><circle class="cls-2" cx="80" cy="99.22" r="180"/><circle class="cls-3" cx="80" cy="99.22" r="3.75"/></mask><linearGradient id="Gradiente_sem_nome_613" x1="200" y1="459.22" x2="200" y2="59.22" gradientUnits="userSpaceOnUse"><stop offset="0" stop-color="#d9d9e1"/><stop offset="1" stop-color="#adadb9"/></linearGradient><mask id="mask-2" x="40" y="-2.03" width="1420" height="572.5" maskUnits="userSpaceOnUse"><path class="cls-1" d="M76.07,459C55.27,457,40,438.39,40,417.49v-70.6c0-29.82,17.91-47.67,40-47.67H197.17c42.57,0,79.8-32.05,82.65-74.52A80.09,80.09,0,0,0,200,139.22H81.72c-20.89,0-39.55-15.27-41.53-36.07A40,40,0,0,1,80,59.22H195.36c86.05,0,160.2,66,164.44,151.93C364.34,303,290.9,379.22,200,379.22H125a5,5,0,0,0-5,5v35A40,40,0,0,1,76.07,459Z"/><path class="cls-1" d="M795,419.22v-320A40,40,0,0,0,751.07,59.4C730.27,61.39,715,80,715,100.92V417.5c0,20.89,15.27,39.54,36.07,41.53A40,40,0,0,0,795,419.22Z"/><path class="cls-1" d="M1419.81,415.28c-2-20.79-20.64-36.06-41.53-36.06H1300a80.1,80.1,0,0,1-79.49-89.16c3.93-35.12,31.67-64.33,66.57-69.82a80,80,0,0,1,79.78,35.1,2.54,2.54,0,0,1-2.15,3.88H1300a40,40,0,0,0-39.81,43.93c2,20.8,20.64,36.07,41.53,36.07H1420c21.53,0,39.8-17,40-38.57.79-88.88-71.29-161.43-160-161.43-90.9,0-164.33,76.19-159.8,168.06,4.24,86,78.39,151.94,164.44,151.94H1380A40,40,0,0,0,1419.81,415.28Z"/><path class="cls-1" d="M651.07,139.41c-20.8,2-36.07,20.64-36.07,41.53V296.39c0,42.57-32,79.8-74.52,82.64A80.09,80.09,0,0,1,455,299.22V180.94c0-20.89-15.27-39.55-36.07-41.54A40,40,0,0,0,375,179.22V295.67c0,80.67,58.37,151.33,138.32,162.09A158.69,158.69,0,0,0,614,438.09a4.84,4.84,0,0,1,6.61,1.51A39.89,39.89,0,0,0,658.79,459c20.86-1.92,36.21-20.63,36.21-41.58V179.22A40,40,0,0,0,651.07,139.41Z"/><path class="cls-1" d="M1129.77,352.37c-3.55-53.09-50.09-93.15-103.3-93.15H910a20,20,0,0,1-19.72-23.38c1.62-9.83,10.87-16.62,20.84-16.62H1050a40,40,0,0,0,39.81-43.94c-2-20.79-20.64-36.06-41.53-36.06H910a100.1,100.1,0,0,0-99.77,106.84c3.55,53.09,50.09,93.16,103.3,93.16H1030a20,20,0,0,1,19.72,23.37c-1.62,9.84-10.87,16.63-20.84,16.63H850a40,40,0,0,0-39.81,43.93c2,20.8,20.64,36.07,41.53,36.07H1030A100.1,100.1,0,0,0,1129.77,352.37Z"/><circle class="cls-2" cx="655" cy="179.22" r="30"/><circle class="cls-2" cx="655" cy="179.22" r="60"/><circle class="cls-3" cx="655" cy="179.22" r="3.75"/><circle class="cls-2" cx="415" cy="179.22" r="30"/><circle class="cls-2" cx="415" cy="179.22" r="60"/><circle class="cls-2" cx="415" cy="179.22" r="90"/><circle class="cls-2" cx="415" cy="179.22" r="120"/><circle class="cls-2" cx="415" cy="179.22" r="150"/><circle class="cls-2" cx="415" cy="179.22" r="180"/><circle class="cls-3" cx="415" cy="179.22" r="3.75"/><circle class="cls-2" cx="655" cy="419.22" r="30"/><circle class="cls-2" cx="655" cy="419.22" r="60"/><circle class="cls-2" cx="655" cy="419.22" r="90"/><circle class="cls-2" cx="655" cy="419.22" r="120"/><circle class="cls-2" cx="655" cy="419.22" r="150"/><circle class="cls-3" cx="655" cy="419.22" r="3.75"/></mask><linearGradient id="Gradiente_sem_nome_613-2" x1="535" y1="459.22" x2="535" y2="139.22" xlink:href="#Gradiente_sem_nome_613"/><mask id="mask-3" x="40" y="-52.03" width="1420" height="622.5" maskUnits="userSpaceOnUse"><path class="cls-1" d="M76.07,459C55.27,457,40,438.39,40,417.49v-70.6c0-29.82,17.91-47.67,40-47.67H197.17c42.57,0,79.8-32.05,82.65-74.52A80.09,80.09,0,0,0,200,139.22H81.72c-20.89,0-39.55-15.27-41.53-36.07A40,40,0,0,1,80,59.22H195.36c86.05,0,160.2,66,164.44,151.93C364.34,303,290.9,379.22,200,379.22H125a5,5,0,0,0-5,5v35A40,40,0,0,1,76.07,459Z"/><path class="cls-1" d="M795,419.22v-320A40,40,0,0,0,751.07,59.4C730.27,61.39,715,80,715,100.92V417.5c0,20.89,15.27,39.54,36.07,41.53A40,40,0,0,0,795,419.22Z"/><path class="cls-1" d="M1419.81,415.28c-2-20.79-20.64-36.06-41.53-36.06H1300a80.1,80.1,0,0,1-79.49-89.16c3.93-35.12,31.67-64.33,66.57-69.82a80,80,0,0,1,79.78,35.1,2.54,2.54,0,0,1-2.15,3.88H1300a40,40,0,0,0-39.81,43.93c2,20.8,20.64,36.07,41.53,36.07H1420c21.53,0,39.8-17,40-38.57.79-88.88-71.29-161.43-160-161.43-90.9,0-164.33,76.19-159.8,168.06,4.24,86,78.39,151.94,164.44,151.94H1380A40,40,0,0,0,1419.81,415.28Z"/><path class="cls-1" d="M651.07,139.41c-20.8,2-36.07,20.64-36.07,41.53V296.39c0,42.57-32,79.8-74.52,82.64A80.09,80.09,0,0,1,455,299.22V180.94c0-20.89-15.27-39.55-36.07-41.54A40,40,0,0,0,375,179.22V295.67c0,80.67,58.37,151.33,138.32,162.09A158.69,158.69,0,0,0,614,438.09a4.84,4.84,0,0,1,6.61,1.51A39.89,39.89,0,0,0,658.79,459c20.86-1.92,36.21-20.63,36.21-41.58V179.22A40,40,0,0,0,651.07,139.41Z"/><path class="cls-1" d="M1129.77,352.37c-3.55-53.09-50.09-93.15-103.3-93.15H910a20,20,0,0,1-19.72-23.38c1.62-9.83,10.87-16.62,20.84-16.62H1050a40,40,0,0,0,39.81-43.94c-2-20.79-20.64-36.06-41.53-36.06H910a100.1,100.1,0,0,0-99.77,106.84c3.55,53.09,50.09,93.16,103.3,93.16H1030a20,20,0,0,1,19.72,23.37c-1.62,9.84-10.87,16.63-20.84,16.63H850a40,40,0,0,0-39.81,43.93c2,20.8,20.64,36.07,41.53,36.07H1030A100.1,100.1,0,0,0,1129.77,352.37Z"/><circle class="cls-2" cx="755" cy="419.22" r="30"/><circle class="cls-2" cx="755" cy="419.22" r="60"/><circle class="cls-2" cx="755" cy="419.22" r="90"/><circle class="cls-2" cx="755" cy="419.22" r="120"/><circle class="cls-2" cx="755" cy="419.22" r="150"/><circle class="cls-3" cx="755" cy="419.22" r="3.75"/><circle class="cls-2" cx="755" cy="99.22" r="30"/><circle class="cls-2" cx="755" cy="99.22" r="60"/><circle class="cls-2" cx="755" cy="99.22" r="90"/><circle class="cls-2" cx="755" cy="99.22" r="120"/><circle class="cls-2" cx="755" cy="99.22" r="150"/><circle class="cls-3" cx="755" cy="99.22" r="3.75"/></mask><linearGradient id="Gradiente_sem_nome_613-3" x1="755" y1="459.22" x2="755" y2="59.22" xlink:href="#Gradiente_sem_nome_613"/><mask id="mask-4" x="40" y="27.97" width="1420" height="542.5" maskUnits="userSpaceOnUse"><path class="cls-1" d="M76.07,459C55.27,457,40,438.39,40,417.49v-70.6c0-29.82,17.91-47.67,40-47.67H197.17c42.57,0,79.8-32.05,82.65-74.52A80.09,80.09,0,0,0,200,139.22H81.72c-20.89,0-39.55-15.27-41.53-36.07A40,40,0,0,1,80,59.22H195.36c86.05,0,160.2,66,164.44,151.93C364.34,303,290.9,379.22,200,379.22H125a5,5,0,0,0-5,5v35A40,40,0,0,1,76.07,459Z"/><path class="cls-1" d="M795,419.22v-320A40,40,0,0,0,751.07,59.4C730.27,61.39,715,80,715,100.92V417.5c0,20.89,15.27,39.54,36.07,41.53A40,40,0,0,0,795,419.22Z"/><path class="cls-1" d="M1419.81,415.28c-2-20.79-20.64-36.06-41.53-36.06H1300a80.1,80.1,0,0,1-79.49-89.16c3.93-35.12,31.67-64.33,66.57-69.82a80,80,0,0,1,79.78,35.1,2.54,2.54,0,0,1-2.15,3.88H1300a40,40,0,0,0-39.81,43.93c2,20.8,20.64,36.07,41.53,36.07H1420c21.53,0,39.8-17,40-38.57.79-88.88-71.29-161.43-160-161.43-90.9,0-164.33,76.19-159.8,168.06,4.24,86,78.39,151.94,164.44,151.94H1380A40,40,0,0,0,1419.81,415.28Z"/><path class="cls-1" d="M651.07,139.41c-20.8,2-36.07,20.64-36.07,41.53V296.39c0,42.57-32,79.8-74.52,82.64A80.09,80.09,0,0,1,455,299.22V180.94c0-20.89-15.27-39.55-36.07-41.54A40,40,0,0,0,375,179.22V295.67c0,80.67,58.37,151.33,138.32,162.09A158.69,158.69,0,0,0,614,438.09a4.84,4.84,0,0,1,6.61,1.51A39.89,39.89,0,0,0,658.79,459c20.86-1.92,36.21-20.63,36.21-41.58V179.22A40,40,0,0,0,651.07,139.41Z"/><path class="cls-1" d="M1129.77,352.37c-3.55-53.09-50.09-93.15-103.3-93.15H910a20,20,0,0,1-19.72-23.38c1.62-9.83,10.87-16.62,20.84-16.62H1050a40,40,0,0,0,39.81-43.94c-2-20.79-20.64-36.06-41.53-36.06H910a100.1,100.1,0,0,0-99.77,106.84c3.55,53.09,50.09,93.16,103.3,93.16H1030a20,20,0,0,1,19.72,23.37c-1.62,9.84-10.87,16.63-20.84,16.63H850a40,40,0,0,0-39.81,43.93c2,20.8,20.64,36.07,41.53,36.07H1030A100.1,100.1,0,0,0,1129.77,352.37Z"/><circle class="cls-2" cx="850" cy="419.22" r="30"/><circle class="cls-2" cx="850" cy="419.22" r="60"/><circle class="cls-2" cx="850" cy="419.22" r="90"/><circle class="cls-2" cx="850" cy="419.22" r="120"/><circle class="cls-2" cx="850" cy="419.22" r="150"/><circle class="cls-3" cx="850" cy="419.22" r="3.75"/><circle class="cls-2" cx="1050" cy="179.22" r="30"/><circle class="cls-2" cx="1050" cy="179.22" r="60"/><circle class="cls-2" cx="1050" cy="179.22" r="90"/><circle class="cls-2" cx="1050" cy="179.22" r="120"/><circle class="cls-2" cx="1050" cy="179.22" r="150"/><circle class="cls-3" cx="1050" cy="179.22" r="3.75"/></mask><linearGradient id="Gradiente_sem_nome_613-4" x1="970" y1="459.22" x2="970" y2="139.22" xlink:href="#Gradiente_sem_nome_613"/><mask id="mask-5" x="810" y="57.97" width="731.25" height="482.5" maskUnits="userSpaceOnUse"><path class="cls-1" d="M1419.81,415.28c-2-20.79-20.64-36.06-41.53-36.06H1300a80.1,80.1,0,0,1-79.49-89.16c3.93-35.12,31.67-64.33,66.57-69.82a80,80,0,0,1,79.78,35.1,2.54,2.54,0,0,1-2.15,3.88H1300a40,40,0,0,0-39.81,43.93c2,20.8,20.64,36.07,41.53,36.07H1420c21.53,0,39.8-17,40-38.57.79-88.88-71.29-161.43-160-161.43-90.9,0-164.33,76.19-159.8,168.06,4.24,86,78.39,151.94,164.44,151.94H1380A40,40,0,0,0,1419.81,415.28Z"/><path class="cls-1" d="M1129.77,352.37c-3.55-53.09-50.09-93.15-103.3-93.15H910a20,20,0,0,1-19.72-23.38c1.62-9.83,10.87-16.62,20.84-16.62H1050a40,40,0,0,0,39.81-43.94c-2-20.79-20.64-36.06-41.53-36.06H910a100.1,100.1,0,0,0-99.77,106.84c3.55,53.09,50.09,93.16,103.3,93.16H1030a20,20,0,0,1,19.72,23.37c-1.62,9.84-10.87,16.63-20.84,16.63H850a40,40,0,0,0-39.81,43.93c2,20.8,20.64,36.07,41.53,36.07H1030A100.1,100.1,0,0,0,1129.77,352.37Z"/><circle class="cls-2" cx="1300" cy="299.22" r="30"/><circle class="cls-2" cx="1300" cy="299.22" r="60"/><circle class="cls-2" cx="1300" cy="299.22" r="90"/><circle class="cls-2" cx="1300" cy="299.22" r="120"/><circle class="cls-2" cx="1300" cy="299.22" r="150"/><circle class="cls-2" cx="1300" cy="299.22" r="180"/><circle class="cls-2" cx="1300" cy="299.22" r="210"/><circle class="cls-2" cx="1300" cy="299.22" r="240"/><circle class="cls-3" cx="1300" cy="299.22" r="3.75"/></mask><linearGradient id="Gradiente_sem_nome_613-5" x1="1300" y1="459.22" x2="1300" y2="139.22" xlink:href="#Gradiente_sem_nome_613"/><linearGradient id="Gradiente_sem_nome_380" x1="1098.17" y1="516.58" x2="1098.17" y2="407.05" gradientUnits="userSpaceOnUse"><stop offset="0" stop-color="#ffa110"/><stop offset="0.3" stop-color="#ffa43c"/><stop offset="0.6" stop-color="#ffa662"/><stop offset="0.85" stop-color="#ffa779"/><stop offset="1" stop-color="#ffa881"/></linearGradient></defs><g id="Camada_2" data-name="Camada 2"><g id="Camada_1-2" data-name="Camada 1"><rect class="cls-1" width="1500" height="560"/><path class="cls-4" d="M1481,330.84a180.89,180.89,0,0,0-360.74-21.15,125.75,125.75,0,0,0-71.19-39.47h.94a61,61,0,0,0,60.72-66.93c-3-30.88-30.38-55.07-62.44-55.07H910a121.42,121.42,0,0,0-88.36,38.4c-2,2.14-3.81,4.42-5.64,6.67V129.22a61.06,61.06,0,0,0-61-61h0q-2.93,0-5.93.28c-30.88,3-55.07,30.37-55.07,62.42v31.44a60.72,60.72,0,0,0-39-14.14q-2.93,0-5.93.28C618.19,151.45,594,178.88,594,210.94V326.39c0,32.53-24.13,59.63-54.92,61.69-1.37.09-2.73.14-4.08.14a59.07,59.07,0,0,1-59-59V210.94c0-32.07-24.19-59.49-55.07-62.44q-3-.28-5.93-.28h0a60.6,60.6,0,0,0-43.13,17.86,61.7,61.7,0,0,0-7.2,8.7c-29.09-63.06-94-106.56-169.31-106.56H80a61,61,0,0,0-60.72,66.92c2.95,30.89,30.38,55.08,62.44,55.08H200a59.08,59.08,0,0,1,58.86,63.07c-2.06,30.8-29.16,54.93-61.69,54.93H80c-35.34,0-61,28.88-61,68.67v70.6c0,32.07,24.19,59.5,55.07,62.44,2,.19,4,.29,5.93.29a61.07,61.07,0,0,0,61-61v-19h59a179.38,179.38,0,0,0,131.08-56.29,183.51,183.51,0,0,0,23.71-31c7.76,84.66,72.11,154.43,155.73,165.68A184.94,184.94,0,0,0,535,510.22a180.06,180.06,0,0,0,77.3-17.54A61.19,61.19,0,0,0,655,510.22c1.89,0,3.79-.09,5.72-.27,18.34-1.69,34.28-12,44.28-26.82,10,14.74,25.83,25.06,44.07,26.8q3,.29,5.93.29a60.89,60.89,0,0,0,47.72-23.11,63.7,63.7,0,0,0,49,23.11H1030a121.46,121.46,0,0,0,88.36-38.4A120.23,120.23,0,0,0,1146,423.36c32.61,52.22,91.51,86.86,158.64,86.86H1380a61,61,0,0,0,60.72-66.93c-2.45-25.65-21.78-46.68-46.63-53.07H1420C1453.34,390.22,1480.7,363.58,1481,330.84ZM816,344.36a125.61,125.61,0,0,0,74.94,43.86H850a61,61,0,0,0-34,10.45Z"/><path class="cls-5" d="M1481,300.84a180.89,180.89,0,0,0-360.74-21.14,125.54,125.54,0,0,0-49.11-33.36,60.69,60.69,0,0,0,39.6-62.55,61.37,61.37,0,0,0,0-10.5c-3-30.88-30.38-55.07-62.44-55.07H910a121.42,121.42,0,0,0-88.36,38.4c-2,2.14-3.81,4.4-5.64,6.65V99.22a61.06,61.06,0,0,0-61-61h0q-2.94,0-5.93.28c-30.88,3-55.07,30.37-55.07,62.42v31.44a60.72,60.72,0,0,0-39-14.14q-2.93,0-5.93.28c-30.88,3-55.07,30.37-55.07,62.44V296.39c0,32.53-24.13,59.63-54.92,61.69-1.37.09-2.73.14-4.08.14a59.07,59.07,0,0,1-59-59V180.94c0-32.07-24.19-59.49-55.07-62.44q-3-.28-5.93-.28a60.82,60.82,0,0,0-50.33,26.56C335.58,81.72,270.62,38.22,195.36,38.22H80a61,61,0,0,0-60.74,66.43,62.29,62.29,0,0,0,0,10.49c2.95,30.89,30.38,55.08,62.44,55.08H200a59,59,0,0,1,58.73,54.18c-2.63,30.26-29.42,53.82-61.56,53.82H80c-35.35,0-61,28.88-61,68.67v80.6c0,32.07,24.19,59.5,55.07,62.44,2,.19,4,.29,5.93.29a61.07,61.07,0,0,0,61-61v-19h59a179.38,179.38,0,0,0,131.08-56.29,183.51,183.51,0,0,0,23.71-31c7.76,84.66,72.11,154.43,155.73,165.68A184.94,184.94,0,0,0,535,490.22a180.2,180.2,0,0,0,77.3-17.54A61.19,61.19,0,0,0,655,490.22c1.89,0,3.79-.09,5.72-.27,18.34-1.69,34.28-12,44.28-26.82,10,14.74,25.83,25.06,44.07,26.8q3,.29,5.93.29a60.91,60.91,0,0,0,47.72-23.11,63.7,63.7,0,0,0,49,23.11H1030a121.46,121.46,0,0,0,88.36-38.4A119.64,119.64,0,0,0,1146,403.31c32.6,52.25,91.52,86.91,158.67,86.91H1380a61,61,0,0,0,60.74-66.43,62.41,62.41,0,0,0,0-10.5c-1.69-17.7-11.53-33.06-25.56-43.07H1420c33.34,0,60.7-26.64,61-59.38,0-2-.19-4-.24-6C1480.85,303.51,1481,302.19,1481,300.84ZM850,358.22a61,61,0,0,0-34,10.45V324.39a125.07,125.07,0,0,0,43.64,33.83Z"/><path class="cls-6" d="M76.07,459C55.27,457,40,438.39,40,417.49v-70.6c0-29.82,17.91-47.67,40-47.67H197.17c42.57,0,79.8-32.05,82.65-74.52A80.09,80.09,0,0,0,200,139.22H81.72c-20.89,0-39.55-15.27-41.53-36.07A40,40,0,0,1,80,59.22H195.36c86.05,0,160.2,66,164.44,151.93C364.34,303,290.9,379.22,200,379.22H125a5,5,0,0,0-5,5v35A40,40,0,0,1,76.07,459ZM795,419.22v-320a40,40,0,0,0-43.93-39.81C730.27,61.39,715,80,715,100.92V417.5c0,20.89,15.27,39.54,36.07,41.53A40,40,0,0,0,795,419.22Zm624.81-3.94c-2-20.79-20.64-36.06-41.53-36.06H1300a80.1,80.1,0,0,1-79.49-89.16c3.93-35.12,31.67-64.33,66.57-69.82a80,80,0,0,1,79.78,35.1,2.54,2.54,0,0,1-2.16,3.88H1300a40,40,0,0,0-39.81,43.93c2,20.8,20.64,36.07,41.53,36.07H1420c21.53,0,39.8-17,40-38.57.79-88.88-71.29-161.43-160-161.43-90.9,0-164.34,76.19-159.8,168.06,4.24,86,78.39,151.94,164.44,151.94H1380A40,40,0,0,0,1419.81,415.28ZM651.07,139.41c-20.8,2-36.07,20.64-36.07,41.53V296.39c0,42.57-32,79.8-74.52,82.64A80.09,80.09,0,0,1,455,299.22V180.94c0-20.89-15.27-39.55-36.07-41.53A40,40,0,0,0,375,179.22V295.67c0,80.67,58.37,151.33,138.32,162.09A158.69,158.69,0,0,0,614,438.09a4.84,4.84,0,0,1,6.61,1.51A39.89,39.89,0,0,0,658.79,459c20.86-1.92,36.21-20.63,36.21-41.58V179.22A40,40,0,0,0,651.07,139.41Zm478.7,213c-3.55-53.09-50.09-93.15-103.3-93.15H910a20,20,0,0,1-19.72-23.38c1.62-9.83,10.87-16.62,20.84-16.62H1050a40,40,0,0,0,39.81-43.94c-2-20.79-20.64-36.06-41.53-36.06H910a100.1,100.1,0,0,0-99.77,106.84c3.55,53.09,50.09,93.16,103.3,93.16H1030a20,20,0,0,1,19.72,23.37c-1.62,9.84-10.87,16.63-20.84,16.63H850a40,40,0,0,0-39.81,43.93c2,20.8,20.64,36.07,41.53,36.07H1030A100.1,100.1,0,0,0,1129.77,352.37Z"/><g class="cls-7"><g class="cls-8"><path class="cls-9" d="M76.07,459C55.27,457,40,438.39,40,417.49v-70.6c0-29.82,17.91-47.67,40-47.67H197.17c42.57,0,79.8-32.05,82.65-74.52A80.09,80.09,0,0,0,200,139.22H81.72c-20.89,0-39.55-15.27-41.53-36.07A40,40,0,0,1,80,59.22H195.36c86.05,0,160.2,66,164.44,151.93C364.34,303,290.9,379.22,200,379.22H125a5,5,0,0,0-5,5v35A40,40,0,0,1,76.07,459Z"/></g></g><g class="cls-10"><g class="cls-8"><path class="cls-11" d="M651.07,139.41c-20.8,2-36.07,20.64-36.07,41.53V296.39c0,42.57-32,79.8-74.52,82.64A80.09,80.09,0,0,1,455,299.22V180.94c0-20.89-15.27-39.55-36.07-41.53A40,40,0,0,0,375,179.22V295.67c0,80.67,58.37,151.33,138.32,162.09A158.69,158.69,0,0,0,614,438.09a4.84,4.84,0,0,1,6.61,1.51A39.89,39.89,0,0,0,658.79,459c20.86-1.92,36.21-20.63,36.21-41.58V179.22A40,40,0,0,0,651.07,139.41Z"/></g></g><g class="cls-12"><g class="cls-8"><path class="cls-13" d="M795,419.22v-320a40,40,0,0,0-43.93-39.81C730.27,61.39,715,80,715,100.92V417.5c0,20.89,15.27,39.54,36.07,41.53A40,40,0,0,0,795,419.22Z"/></g></g><g class="cls-14"><g class="cls-8"><path class="cls-15" d="M1129.77,352.37c-3.55-53.09-50.09-93.15-103.3-93.15H910a20,20,0,0,1-19.72-23.38c1.62-9.83,10.87-16.62,20.84-16.62H1050a40,40,0,0,0,39.81-43.94c-2-20.79-20.64-36.06-41.53-36.06H910a100.1,100.1,0,0,0-99.77,106.84c3.55,53.09,50.09,93.16,103.3,93.16H1030a20,20,0,0,1,19.72,23.37c-1.62,9.84-10.87,16.63-20.84,16.63H850a40,40,0,0,0-39.81,43.93c2,20.8,20.64,36.07,41.53,36.07H1030A100.1,100.1,0,0,0,1129.77,352.37Z"/></g></g><g class="cls-16"><g class="cls-8"><path class="cls-17" d="M1419.81,415.28c-2-20.79-20.64-36.06-41.53-36.06H1300a80.1,80.1,0,0,1-79.49-89.16c3.93-35.12,31.67-64.33,66.57-69.82a80,80,0,0,1,79.78,35.1,2.54,2.54,0,0,1-2.16,3.88H1300a40,40,0,0,0-39.81,43.93c2,20.8,20.64,36.07,41.53,36.07H1420c21.53,0,39.8-17,40-38.57.79-88.88-71.29-161.43-160-161.43-90.9,0-164.34,76.19-159.8,168.06,4.24,86,78.39,151.94,164.44,151.94H1380A40,40,0,0,0,1419.81,415.28Z"/></g></g><g class="cls-18"><path class="cls-19" d="M280,219.22a109.79,109.79,0,0,0-6.36-18.11c-.62-1.41-1.4-2.77-2-4.14s-1.44-2.69-2.25-4-1.54-2.58-2.41-3.81c-.42-.62-.81-1.24-1.25-1.85l-1.33-1.78a81.12,81.12,0,0,0-25.52-22.38,74.49,74.49,0,0,0-30.7-9.22c-2.63-.21-5.28-.22-7.91-.17l-9.6.23q-9.65.19-19.29.2c-25.71,0-51.43-1-77.15-3.18-3.21-.27-6.43-.59-9.64-.9l-2.41-.25-1.4-.17-1.49-.19c-1-.15-2-.21-3-.45l-2.91-.68A49.09,49.09,0,0,1,53,137.58a43.82,43.82,0,0,1-12.24-18.33A36,36,0,0,1,40,98.72a42.3,42.3,0,0,0,8.14,16.61,40.78,40.78,0,0,0,9.64,8.24,19.59,19.59,0,0,0,1.8,1c.62.3,1.18.66,1.82.91a38.8,38.8,0,0,0,3.72,1.47c.64.2,1.25.44,1.88.62l1.91.44,1,.23,1,.14,1.89.31,1.91.13a13.15,13.15,0,0,0,1.88.09l1.87,0c.61,0,1.23-.12,1.84-.15l1.93-.17,2.41-.26c3.21-.3,6.43-.63,9.64-.89,25.72-2.24,51.44-3.2,77.15-3.19q9.65,0,19.29.2c3.24.09,6.38.12,9.69.25a87.6,87.6,0,0,1,11.32,1.08,85.31,85.31,0,0,1,40.63,18.1,81.26,81.26,0,0,1,25.08,34.87C282.22,192,283.25,206.35,280,219.22Z"/></g><g class="cls-18"><path class="cls-19" d="M360,219.22a131.84,131.84,0,0,1,1.07,31.61,146.53,146.53,0,0,1-6.18,31.63,156.89,156.89,0,0,1-32.3,56.91c-.9,1.06-1.85,2.06-2.82,3.07l-2.88,3c-.94,1-1.95,2-3,2.94l-3,2.88c-1,1-2.06,1.88-3.12,2.78l-3.2,2.71c-1.05.92-2.17,1.76-3.27,2.61L298,361.93a160.13,160.13,0,0,1-28.9,17.18,164.11,164.11,0,0,1-65.57,15l-2.12.05c-.7,0-1.43,0-2,0h-3.88l-7.75,0-15.5-.14q-15.51-.19-31-.57L125.69,393l-.48,0h-.12s-.16,0,0,0h.41a9.57,9.57,0,0,0,1.67-.29,8.69,8.69,0,0,0,3-1.5,8.53,8.53,0,0,0,3.27-5.64c0-.27.05-.55.07-.82v-.4c0-.09,0-.14,0-.06v.12l0,1-.08,1.94-.15,3.87-.64,15.51-.4,7.75-.2,3.88-.05,1-.1,1.26L131.6,423a50,50,0,0,1-18.7,33.6,48.42,48.42,0,0,1-17,8.59,47.37,47.37,0,0,1-18.49,1.23,43,43,0,0,1-29.86-17.82A42.32,42.32,0,0,1,40,417.49a43.15,43.15,0,0,0,13.86,25.62,33.64,33.64,0,0,0,24.36,8.63A31.26,31.26,0,0,0,106,432.16a30,30,0,0,0,2-10.85l0-1.37v-.68l0-.95-.2-3.88-.4-7.75-.64-15.51-.15-3.87-.08-1.94,0-1V384l0-.89c0-.59.09-1.18.18-1.78a18.56,18.56,0,0,1,7.19-12.09,18.75,18.75,0,0,1,6.51-3.15,18.18,18.18,0,0,1,3.58-.58l1.71-.06L141.2,365c10.33-.27,20.67-.44,31-.58l15.5-.14,7.75,0h3.88c.67,0,1.23,0,1.82,0l1.75-.05A155.18,155.18,0,0,0,257.78,353,162.72,162.72,0,0,0,283,340.21l3-1.94c1-.65,2-1.28,3-2,1.92-1.4,3.9-2.73,5.78-4.2l2.83-2.19c.95-.73,1.91-1.45,2.8-2.25l2.73-2.33c.92-.78,1.83-1.55,2.69-2.39a166.25,166.25,0,0,0,35.51-46,173.49,173.49,0,0,0,11.6-27.67A205,205,0,0,0,360,219.22Z"/></g><g class="cls-18"><path class="cls-19" d="M715,259.22c1.67,9.27,3,18.55,4.16,27.83s2.22,18.55,3.17,27.83c1.88,18.55,3.27,37.1,4.44,55.66.57,9.27,1,18.55,1.45,27.83l.54,13.91.13,3.48.06,1.74.13,1.17a15,15,0,0,0,.28,2.32,20.22,20.22,0,0,0,.47,2.29,28.61,28.61,0,0,0,9.49,15.27,24.44,24.44,0,0,0,7.42,4.24,24,24,0,0,0,8.37,1.41,27.26,27.26,0,0,0,8.52-1.5,23.59,23.59,0,0,0,7.56-4.26,25.42,25.42,0,0,0,9.13-14.74l.23-1.1.13-.55.05-.56c.06-.75.14-1.5.23-2.26l.24-7,.55-13.91c.41-9.28.87-18.56,1.44-27.83,1.17-18.56,2.56-37.11,4.44-55.66,1-9.28,2-18.56,3.19-27.83s2.5-18.56,4.18-27.83c1.68,9.27,3,18.55,4.18,27.83s2.23,18.55,3.19,27.83c1.89,18.55,3.27,37.1,4.44,55.66.57,9.27,1,18.55,1.44,27.83l.55,13.91.24,7c0,1.56-.08,3.12-.14,4.68l-.06,1.18-.15,1.17-.32,2.33a54,54,0,0,1-6.08,17.86,55.54,55.54,0,0,1-12,14.62A53.06,53.06,0,0,1,774,470.77a56.6,56.6,0,0,1-18.72,3.43,53.91,53.91,0,0,1-18.88-3.38A53.24,53.24,0,0,1,720,461a55.84,55.84,0,0,1-18-32c-.35-1.5-.44-3.05-.64-4.58a39.34,39.34,0,0,1-.27-4.61l0-2.3.06-1.74.13-3.48.54-13.91c.42-9.28.88-18.56,1.45-27.83,1.18-18.56,2.56-37.11,4.44-55.66,1-9.28,2-18.56,3.17-27.83S713.33,268.49,715,259.22Z"/></g><g class="cls-18"><path class="cls-19" d="M1260,298.6c.47,1.28.92,2.52,1.33,3.73a14.38,14.38,0,0,0,.74,1.77l.78,1.71a42.1,42.1,0,0,0,3.73,6.2,38.13,38.13,0,0,0,9.69,9.17,37.35,37.35,0,0,0,22.81,6.15c1-.11,1.8-.21,2.82-.29l3.82-.37,7.64-.67c5.1-.39,10.2-.75,15.29-1q15.3-.79,30.58-.79t30.58.76c5.1.25,10.2.59,15.29,1,2.55.2,5.1.43,7.65.66l7.53.77a34.32,34.32,0,0,0,22.67-4.77,37.79,37.79,0,0,0,10-8.8,43.48,43.48,0,0,0,7-13.17,32.58,32.58,0,0,1,.63,16.54,40.16,40.16,0,0,1-7.45,16.07,45,45,0,0,1-14.13,12.1,47.51,47.51,0,0,1-18.52,5.65l-2,.23-1.91.19-3.82.38c-2.55.23-5.1.46-7.65.66-5.09.4-10.19.74-15.29,1q-15.28.78-30.58.75t-30.58-.78c-5.09-.25-10.19-.61-15.29-1l-7.64-.66-3.82-.38c-1.53-.16-3.23-.39-4.82-.61a48.44,48.44,0,0,1-31.35-19.39,40.31,40.31,0,0,1-6.87-16.3l-.3-2.14a12.5,12.5,0,0,1-.19-2.13l0-2.12a13.28,13.28,0,0,1,.07-2.09l.23-2.07a11,11,0,0,1,.33-2C1259.29,301.18,1259.64,299.87,1260,298.6Z"/></g><g class="cls-18"><path class="cls-19" d="M1220,300.06a45.54,45.54,0,0,1-2.07-6.57c-.26-1.12-.48-2.25-.69-3.39s-.28-2.29-.42-3.45-.25-2.33-.33-3.51,0-2.33,0-3.52,0-2.37.07-3.56a13.08,13.08,0,0,1,.15-1.78l.21-1.77a72.19,72.19,0,0,1,9.19-27.46,80.61,80.61,0,0,1,46.24-36.71,68.11,68.11,0,0,1,7.44-1.89,73.63,73.63,0,0,1,7.54-1.17,70.49,70.49,0,0,1,7.55-.45h3.78c1.26,0,2.52.15,3.78.24a78.66,78.66,0,0,1,28.81,7.84c2.23,1.08,4.34,2.39,6.47,3.59,2,1.4,4.08,2.73,6,4.23a70,70,0,0,1,10.41,10l2.27,2.74c.69,1,1.38,1.94,2,2.92a54.29,54.29,0,0,1,3.61,6l.82,1.53c.25.53.49,1.06.71,1.6l1.34,3.19a58.74,58.74,0,0,1,2,6.61c-2-1.26-3.7-2.62-5.55-3.81l-2.74-1.78-1.33-.88-1.38-.81c-.92-.53-1.84-1.05-2.71-1.6s-1.84-1-2.74-1.48-1.8-1-2.7-1.43l-2.75-1.27a94.45,94.45,0,0,0-21.78-7.17,90.19,90.19,0,0,0-21.49-1.58c-.88.06-1.76.05-2.64.13l-2.64.29c-.88.12-1.76.1-2.63.29l-2.62.43a49,49,0,0,0-5.1,1,41.43,41.43,0,0,0-5,1.34,87,87,0,0,0-36,22,97.57,97.57,0,0,0-14.19,18c-.51.86-1.12,1.7-1.57,2.59s-.94,1.78-1.45,2.68-1,1.8-1.46,2.74-.87,1.88-1.32,2.84l-1.36,2.91c-.44,1-.85,2-1.26,3C1221.6,295.83,1220.84,297.91,1220,300.06Z"/></g><g class="cls-18"><path class="cls-19" d="M1140,299.22c1.73,8.21,3.65,16.17,6,23.89.64,1.92,1.3,3.83,1.91,5.73s1.4,3.76,2.09,5.63l1.06,2.78,1.17,2.74c.8,1.82,1.5,3.65,2.41,5.41s1.67,3.56,2.53,5.32l2.76,5.17c.44.87,1,1.7,1.45,2.54l1.46,2.52c.5.84,1,1.69,1.48,2.51l1.58,2.43c2.06,3.27,4.31,6.41,6.53,9.53L1176,380c1.19,1.5,2.46,2.94,3.66,4.42a173.14,173.14,0,0,0,73.46,50.81c.89.31,1.75.67,2.64,1l2.67.85c1.79.56,3.55,1.19,5.37,1.64l5.41,1.49,5.47,1.26a186.28,186.28,0,0,0,22.23,3.37c1.87.15,3.75.23,5.63.35l1.41.1,1.48.08,3.08.12,12.32.54q12.32.62,24.64,1.45c4.11.26,8.21.6,12.32.92s8.21.62,12.32,1l6.16.57,3.08.28.75.07.6,0,1.21.1,1.23.1c.41,0,.81,0,1.22,0,.81,0,1.64,0,2.47-.07l2.47-.31a7.4,7.4,0,0,0,1.23-.23l1.23-.27a36,36,0,0,0,18.1-10.59,42.57,42.57,0,0,0,6.46-9.44A49,49,0,0,0,1420,418a39.89,39.89,0,0,1,.67,12.81,43.13,43.13,0,0,1-3.87,12.82A43.83,43.83,0,0,1,1397,463.38l-1.65.81a12.74,12.74,0,0,1-1.7.72l-3.49,1.25c-1.18.37-2.39.63-3.6.93-.61.14-1.21.32-1.83.42l-1.85.26L1381,468l-.93.12-.79.07-3.08.29-6.16.57c-4.11.4-8.21.7-12.32,1s-8.21.67-12.32.93c-8.21.57-16.43,1-24.64,1.44l-12.32.55-3.08.12c-.5,0-1,0-1.61,0l-1.67,0c-2.22,0-4.45.05-6.68,0a174,174,0,0,1-26.62-2.75,167.12,167.12,0,0,1-25.87-7c-33.66-12.08-63.41-35.22-82.32-65.16a145.87,145.87,0,0,1-12.16-23.39,138.36,138.36,0,0,1-10.66-50.47A124.85,124.85,0,0,1,1140,299.22Z"/></g><g class="cls-18"><path class="cls-19" d="M375,295.67A207.29,207.29,0,0,0,382.86,330c.41,1.39.92,2.75,1.42,4.11l1.45,4.08,1.62,4c.54,1.33,1,2.67,1.67,4,1.21,2.6,2.3,5.24,3.63,7.77l1.91,3.82,2.07,3.73a167.12,167.12,0,0,0,19.23,27.69c1.75,2.16,3.73,4.14,5.57,6.21.91,1.05,1.94,2,2.9,3s1.93,2,2.94,2.93l3.05,2.81,1.52,1.4,1.59,1.34,3.15,2.67c1.06.87,2.15,1.71,3.23,2.56a152.49,152.49,0,0,0,27.74,17.27c4.85,2.43,9.92,4.35,14.95,6.29A147.57,147.57,0,0,0,498,440.23l3.93.9c1.32.24,2.64.48,4,.74,2.63.57,5.3.86,8,1.26,1.32.22,2.67.32,4,.45s2.69.28,4,.38l4,.22,2,.1,2,0,4,.06,4-.09,2,0,2-.13,4-.25,4-.41,2-.21,2-.28,4-.58,4-.73c1.32-.22,2.63-.51,3.94-.81s2.62-.56,3.91-.89c2.59-.71,5.19-1.33,7.74-2.18a140.72,140.72,0,0,0,15.12-5.49l3.71-1.6,3.64-1.75,1.81-.87,1.79-.95,1.79-.94,3-1.55a19.57,19.57,0,0,1,16.68.22,18.84,18.84,0,0,1,7.14,6.08c1.19,1.79.88,1.39,1.1,1.71l.37.61a28.71,28.71,0,0,0,3.48,4.53,26.51,26.51,0,0,0,21.08,8,26.08,26.08,0,0,0,11.13-3.44,29.8,29.8,0,0,0,9.12-8.43A32.07,32.07,0,0,0,683.75,422l.35-1.63.19-1.66.1-.83.06-.43,0-.55.12-2.22c.15-3,.36-5.92.54-8.88.39-5.92.73-11.84,1.17-17.76l1.32-17.76c1-11.84,2-23.68,3.19-35.52s2.5-23.67,4.18-35.51c1.68,11.84,3,23.68,4.18,35.51s2.23,23.68,3.19,35.52L703.69,388c.44,5.92.78,11.84,1.17,17.76.18,3,.39,5.92.54,8.88l.12,2.22,0,.55v4.85l-.24,2.77a52.27,52.27,0,0,1-6.73,21.24,54.23,54.23,0,0,1-15.25,17,52,52,0,0,1-33.68,9.17A49.93,49.93,0,0,1,638,470.2a53.76,53.76,0,0,1-11-4.84,56.21,56.21,0,0,1-9.6-7.15,52.31,52.31,0,0,1-7.8-9.13l-.83-1.26c-.19-.31-.89-1.34-.11-.15a10.16,10.16,0,0,0,3.78,3.25,9.47,9.47,0,0,0,8.09.21,4.39,4.39,0,0,0,.44-.21l.21-.11c.11-.06.11-.07,0,0l-.53.3-1.05.6-2.11,1.18-2.11,1.19-2.15,1.11-4.32,2.2-4.39,2a167.45,167.45,0,0,1-18.13,6.92c-3.08,1-6.22,1.81-9.35,2.67-1.56.41-3.15.73-4.73,1.1s-3.16.73-4.76,1l-4.78.86-4.82.67-2.41.33-2.42.24-4.84.45-4.85.24-2.42.12-2.43,0-4.86,0-4.84-.19-2.42-.11-2.42-.19-4.82-.41c-1.6-.17-3.2-.39-4.8-.59s-3.19-.39-4.79-.69c-3.18-.56-6.38-1-9.53-1.81-1.58-.34-3.16-.7-4.73-1.08l-4.67-1.31a177.13,177.13,0,0,1-18.27-6.39,158.83,158.83,0,0,1-17.28-8.6c-1.38-.81-2.79-1.58-4.16-2.42l-4-2.59-2-1.29L443,445l-3.91-2.78c-1.28-1-2.52-2-3.78-3s-2.53-1.95-3.72-3c-2.41-2.09-4.86-4.12-7.13-6.35a160,160,0,0,1-24.33-29L397.56,397l-2.39-4.05c-1.64-2.66-3-5.47-4.48-8.23-.73-1.38-1.35-2.82-2-4.22s-1.35-2.81-1.94-4.25l-1.79-4.3c-.29-.72-.6-1.43-.88-2.15l-.78-2.2A151.22,151.22,0,0,1,375,295.67Z"/></g><g class="cls-18"><path class="cls-19" d="M810,418c.17,1,.39,2.08.64,3.1a25.76,25.76,0,0,0,.87,3c.36,1,.62,1.94,1,2.88l1.24,2.74a38.91,38.91,0,0,0,6.74,9.42c.69.65,1.31,1.34,2,1.94s1.45,1.18,2.15,1.77l2.28,1.58c.73.53,1.59.92,2.36,1.38a39,39,0,0,0,10,3.8,37.78,37.78,0,0,0,10.22.81l2.57-.21,3.13-.28,6.26-.57c4.17-.4,8.35-.71,12.52-1s8.35-.66,12.52-.92c33.39-2.24,66.78-3.2,100.18-3.23l12.52,0,12.52.14,12.52.24,6.19.14h2.68l1.35,0,1.34-.06a91.42,91.42,0,0,0,21.31-3.16,93.21,93.21,0,0,0,20.32-8.11,101.43,101.43,0,0,0,40.08-39.75,110.93,110.93,0,0,0,5.3-10.77,129.46,129.46,0,0,0,7.16-23.75,85.73,85.73,0,0,1,.94,25.83,96.34,96.34,0,0,1-6.78,25.73,102.34,102.34,0,0,1-34,42.59,105.59,105.59,0,0,1-52.47,19.81c-2.37.3-4.75.32-7.13.46l-6.34.17-12.52.23-12.52.14-12.52,0c-33.4,0-66.79-1-100.18-3.23-4.17-.25-8.35-.61-12.52-.92s-8.35-.63-12.52-1l-6.26-.56-3.13-.29-.4,0-.47-.06-.94-.12-1.88-.24a51.31,51.31,0,0,1-14.2-4.33,49.41,49.41,0,0,1-11.9-8.23c-.84-.85-1.74-1.62-2.5-2.54l-2.29-2.71c-.69-1-1.37-1.92-2-2.89s-1.17-2-1.75-3a40.18,40.18,0,0,1-4.28-12.93l-.3-3.33c-.07-1.1,0-2.21,0-3.3A30.9,30.9,0,0,1,810,418Z"/></g><g class="cls-18"><path class="cls-19" d="M810,239.21c.47,1.59.93,3.17,1.35,4.73.23.78.39,1.56.63,2.33l.75,2.29.71,2.27.82,2.23c.28.73.54,1.47.79,2.21l.89,2.17a110.75,110.75,0,0,0,8.25,16.27A106.62,106.62,0,0,0,907.88,324c1.36.13,2.73.13,4.1.18l1,0,.51,0h3l9.57.14c6.39.14,12.77.31,19.16.58,12.77.52,25.54,1.3,38.31,2.43s25.54,2.58,38.31,4.44l4.79.73,2.39.37,1.28.2,1.54.28a23.87,23.87,0,0,1,10.8,5.21,22.28,22.28,0,0,1,6.42,9.13A19.34,19.34,0,0,1,1050,358a20.77,20.77,0,0,0-4.76-7.89,17.66,17.66,0,0,0-6.93-4.35,15,15,0,0,0-7.24-.61l-.85.16-1.13.17-2.39.37-4.79.74q-19.15,2.78-38.31,4.44c-12.77,1.13-25.54,1.9-38.31,2.43q-9.59.39-19.16.57l-9.57.14-2.4,0h-1.28l-1.37,0c-1.82,0-3.64,0-5.46-.19a110.05,110.05,0,0,1-41.89-11.19,106,106,0,0,1-33.83-26.33,95.54,95.54,0,0,1-19.63-37.08A80.43,80.43,0,0,1,810,239.21Z"/></g><g class="cls-18"><path class="cls-19" d="M890,239.21a17.6,17.6,0,0,1-.77-8,20.55,20.55,0,0,1,3-8.14A26,26,0,0,1,907,212.19a21.55,21.55,0,0,1,2.4-.59l2.27-.4,3.65-.64c2.44-.42,4.87-.81,7.31-1.17,4.87-.75,9.74-1.38,14.61-1.94a518.2,518.2,0,0,1,58.45-3.23q14.63,0,29.23.76c4.87.25,9.74.59,14.61,1,2.44.2,4.87.43,7.31.66l3.5.36c.85.06,1.72.18,2.59.27a34.11,34.11,0,0,0,21.21-6.16,39.08,39.08,0,0,0,9.21-8.9,48.36,48.36,0,0,0,6.65-12.76c3.26,9.79,1.44,21.79-4.93,31.57a44.44,44.44,0,0,1-12.53,12.67,46.79,46.79,0,0,1-17.19,7.08q-2.34.38-4.71.66l-3.8.4c-2.44.23-4.87.46-7.31.66-4.87.4-9.74.74-14.61,1q-14.61.78-29.23.75A515.87,515.87,0,0,1,937.24,231q-7.31-.82-14.61-1.93c-2.44-.36-4.87-.76-7.31-1.17l-3.65-.64-.46-.09-.32-.07-.6-.14a12.34,12.34,0,0,0-1.24-.22,17.31,17.31,0,0,0-10.78,2.1,17.13,17.13,0,0,0-4.84,4.08A20.6,20.6,0,0,0,890,239.21Z"/></g><path class="cls-20" d="M957.86,443.47a37.83,37.83,0,0,0-12.08-14.2,30.69,30.69,0,0,0-18-5.26,28.43,28.43,0,0,0-11.44,2.2,22.22,22.22,0,0,0-8.1,5.76,16.92,16.92,0,0,0-3.67,7,55.33,55.33,0,0,0-8.26,4.79,67.21,67.21,0,0,0-10.44,9.09,66.51,66.51,0,0,0-9.16,12.36,47.53,47.53,0,0,0-5.62,15.34,43,43,0,0,0-.21,17.9A33.74,33.74,0,0,0,890.73,523a44.46,44.46,0,0,0,18.11,3.48,57.88,57.88,0,0,0,18.4-2.91,58.73,58.73,0,0,0,16.12-8.32,50.5,50.5,0,0,0,12.43-13,46.57,46.57,0,0,0,6.89-17,73.79,73.79,0,0,0,.93-22A57.7,57.7,0,0,0,957.86,443.47ZM941.09,482.4a26.15,26.15,0,0,1-6,12.22,32.28,32.28,0,0,1-11,8.16,31.71,31.71,0,0,1-13.35,2.92,22.86,22.86,0,0,1-11.44-2.63,14.2,14.2,0,0,1-6.46-7.53q-1.85-4.91-.43-11.72a42,42,0,0,1,4-11.72,39.09,39.09,0,0,1,7.39-9.66,63.47,63.47,0,0,1,7.9-6.31,10.41,10.41,0,0,0,2.68.41,6.76,6.76,0,0,0,4.55-1.56,7.69,7.69,0,0,0,2.41-4.69,7.14,7.14,0,0,1,1.5-3.34,3.53,3.53,0,0,1,2.77-1.2,11.67,11.67,0,0,1,8.16,3.19,22.37,22.37,0,0,1,5.55,8.52,41.53,41.53,0,0,1,2.55,11.8A49.59,49.59,0,0,1,941.09,482.4Zm113.15,30.76a11,11,0,0,1,.07,5.18,10,10,0,0,1-3.9,5.83,12.2,12.2,0,0,1-7.46,2.27,11.83,11.83,0,0,1-10.16-5.33q-3.76-5.33-4.26-15.34t2.34-24.51q.7-3.4,1-5.75a15.6,15.6,0,0,0,.06-2.86c-.37-.07-.65-.34-1.05-.34q-2.7,0-7.1,3.34a60.35,60.35,0,0,0-9.45,9.38,152,152,0,0,0-10.3,14.06,156.27,156.27,0,0,0-9.8,17.4q-2.85,5.82-5.47,7.82a10.91,10.91,0,0,1-6.75,2c-4.54,0-7.43-2.12-8.66-6.39s-1.24-9.7,0-16.34A110.84,110.84,0,0,1,976.46,491q1.71-5.33,3.41-9.94t3.34-9.31a74.1,74.1,0,0,0,2.77-10.8,11.57,11.57,0,0,1,3.62-6.46,10.36,10.36,0,0,1,6.89-2.2,7.79,7.79,0,0,1,6.54,3.48q2.55,3.48,1.13,10.3a34,34,0,0,1-1.49,7.17c-.31.95-.79,2-1.17,3,1.34-1.78,2.65-3.77,4-5.35q8.44-9.79,16.76-14.63t15.27-4.83q6.54,0,10.37,2.62a12.08,12.08,0,0,1,5,7.54,27.53,27.53,0,0,1-.28,11.71q-2.13,10.23-2.91,17.41a55,55,0,0,0-.29,11.58,12.07,12.07,0,0,0,2.63,6.81A12.77,12.77,0,0,1,1054.24,513.16Zm51.93-6.68a12.86,12.86,0,0,1,0,6.61,15.33,15.33,0,0,1-3.2,7.17,16.82,16.82,0,0,1-6,4.69,18,18,0,0,1-7.54,1.63,31,31,0,0,1-7-.85,15.72,15.72,0,0,1-6.76-3.56,18.83,18.83,0,0,1-5-7.81,40.45,40.45,0,0,1-2-13.49,108,108,0,0,1,2.35-20.89q2.26-10.8,4.61-20t4.91-17.47q2.55-8.31,5.68-16.27,1.84-5,4.54-7.1a10.46,10.46,0,0,1,6.68-2.13q5.4,0,7.67,4.05c1.51,2.7,1.71,7,.57,13a93.47,93.47,0,0,1-2.34,9.1q-1.5,4.83-3.27,10.58t-3.76,12.93q-2,7.17-3.7,16.12c-1,5-1.7,9-2,11.94a28.09,28.09,0,0,0-.07,6.6,3.89,3.89,0,0,0,1.42,2.85,4.28,4.28,0,0,0,2.2.63,13,13,0,0,0,2.92-.28l2.2-.5a9.54,9.54,0,0,1,2-.21Q1105.31,503.85,1106.17,506.48Zm53.7-74.8a14.41,14.41,0,0,1-4.33,7.74q-3.63,3.63-10.44,3.63c-4.84,0-8.48-1.36-10.94-4.05a11,11,0,0,1-2.56-10,12,12,0,0,1,5.26-8.1,17.52,17.52,0,0,1,9.94-2.84,14.46,14.46,0,0,1,8.17,2.13,10.78,10.78,0,0,1,4.33,5.26A11.78,11.78,0,0,1,1159.87,431.68Zm-9.87,23.8q2.48,3.33,1.34,9.73c-.37,1.89-.94,4.57-1.7,8s-1.65,7.3-2.69,11.51-2.07,8.43-3.06,12.65-1.92,8.09-2.77,11.64-1.47,6.37-1.85,8.45a12.21,12.21,0,0,1-3.27,6.61,8.76,8.76,0,0,1-6.39,2.35,12.58,12.58,0,0,1-7-1.92,10.22,10.22,0,0,1-4.19-5.19,12.74,12.74,0,0,1-.5-7q1.85-9.22,3-15.55t1.78-11q.65-4.69,1.35-8.88c.48-2.79,1-5.71,1.56-8.74a18.47,18.47,0,0,1,3.7-7.88,24.78,24.78,0,0,1,6.53-5.9,13.62,13.62,0,0,1,7.1-2.27A8.25,8.25,0,0,1,1150,455.48Zm90.35,57.68a11,11,0,0,1,.07,5.18,10,10,0,0,1-3.9,5.83,12.21,12.21,0,0,1-7.47,2.27,11.81,11.81,0,0,1-10.15-5.33q-3.76-5.33-4.26-15.34t2.34-24.51q.7-3.4,1-5.75a16.55,16.55,0,0,0,.06-2.86c-.37-.07-.65-.34-1-.34q-2.7,0-7.1,3.34a59.92,59.92,0,0,0-9.45,9.38,152,152,0,0,0-10.3,14.06,154.69,154.69,0,0,0-9.8,17.4q-2.85,5.82-5.47,7.82a11,11,0,0,1-6.75,2c-4.55,0-7.44-2.12-8.67-6.39s-1.23-9.7,0-16.34a112.86,112.86,0,0,1,3.13-12.57q1.7-5.33,3.41-9.94t3.34-9.31a74.17,74.17,0,0,0,2.76-10.8,11.64,11.64,0,0,1,3.63-6.46,10.36,10.36,0,0,1,6.89-2.2,7.81,7.81,0,0,1,6.54,3.48q2.55,3.48,1.13,10.3a34,34,0,0,1-1.49,7.17c-.32.95-.79,2-1.17,3,1.34-1.78,2.65-3.77,4-5.35q8.45-9.79,16.77-14.63t15.27-4.83q6.52,0,10.37,2.62a12.08,12.08,0,0,1,5,7.54,27.53,27.53,0,0,1-.28,11.71q-2.13,10.23-2.92,17.41a54.89,54.89,0,0,0-.28,11.58,12.07,12.07,0,0,0,2.63,6.81A12.77,12.77,0,0,1,1240.35,513.16Zm85.16-12c-.85-2-2.64-3-5.39-3a11.08,11.08,0,0,0-5.26,1.56q-2.85,1.56-6.46,3.62a39.68,39.68,0,0,1-9,3.56A51,51,0,0,1,1286,508.4q-5.4,0-8.24-1.71a7.89,7.89,0,0,1-3.69-4.69,13.66,13.66,0,0,1-.28-6.25h0s0,.05.07.07c2.6,1.95,7.17,2.91,13.71,2.91a65.79,65.79,0,0,0,12.57-1.2,45.49,45.49,0,0,0,11.5-3.84,27.12,27.12,0,0,0,9-7,23.43,23.43,0,0,0,4.89-10.3q1.58-7.95-.85-13.57a17.33,17.33,0,0,0-8-8.59q-5.54-3-13.93-3a43.67,43.67,0,0,0-17.54,3.54,53,53,0,0,0-14.7,9.53,57.59,57.59,0,0,0-10.87,13.28,45.4,45.4,0,0,0-5.75,15,35.22,35.22,0,0,0-.43,12.92,22.75,22.75,0,0,0,4.76,10.8,25,25,0,0,0,10.51,7.39q6.75,2.7,17,2.7a69.16,69.16,0,0,0,15.13-1.57,59,59,0,0,0,12.43-4.11,29.11,29.11,0,0,0,8.66-6,15.49,15.49,0,0,0,4.13-7.1A10.82,10.82,0,0,0,1325.51,501.15Zm-34.37-28.91a20.9,20.9,0,0,1,8.66-1.92q3.69,0,5,1.49t.71,4.48a8.42,8.42,0,0,1-3.76,5.11A24.92,24.92,0,0,1,1294,485a33.51,33.51,0,0,1-9.09,1.27,31.62,31.62,0,0,1-5.83-.42c-.58-.12-1-.11-1.46-.18a35.92,35.92,0,0,1,5.8-7.92A25.25,25.25,0,0,1,1291.14,472.24Z"/><path class="cls-20" d="M957.86,433.47a37.83,37.83,0,0,0-12.08-14.2,30.69,30.69,0,0,0-18-5.26,28.43,28.43,0,0,0-11.44,2.2,22.22,22.22,0,0,0-8.1,5.76,16.92,16.92,0,0,0-3.67,7,55.33,55.33,0,0,0-8.26,4.79,67.21,67.21,0,0,0-10.44,9.09,66.51,66.51,0,0,0-9.16,12.36,47.53,47.53,0,0,0-5.62,15.34,43,43,0,0,0-.21,17.9A33.74,33.74,0,0,0,890.73,513a44.46,44.46,0,0,0,18.11,3.48,57.88,57.88,0,0,0,18.4-2.91,58.73,58.73,0,0,0,16.12-8.32,50.5,50.5,0,0,0,12.43-13,46.57,46.57,0,0,0,6.89-17,73.79,73.79,0,0,0,.93-22A57.7,57.7,0,0,0,957.86,433.47ZM941.09,472.4a26.15,26.15,0,0,1-6,12.22,32.28,32.28,0,0,1-11,8.16,31.71,31.71,0,0,1-13.35,2.92,22.86,22.86,0,0,1-11.44-2.63,14.2,14.2,0,0,1-6.46-7.53q-1.85-4.91-.43-11.72a42,42,0,0,1,4-11.72,39.09,39.09,0,0,1,7.39-9.66,63.47,63.47,0,0,1,7.9-6.31,10.41,10.41,0,0,0,2.68.41,6.76,6.76,0,0,0,4.55-1.56,7.69,7.69,0,0,0,2.41-4.69,7.14,7.14,0,0,1,1.5-3.34,3.53,3.53,0,0,1,2.77-1.2,11.67,11.67,0,0,1,8.16,3.19,22.37,22.37,0,0,1,5.55,8.52,41.53,41.53,0,0,1,2.55,11.8A49.59,49.59,0,0,1,941.09,472.4Zm113.15,30.76a11,11,0,0,1,.07,5.18,10,10,0,0,1-3.9,5.83,12.2,12.2,0,0,1-7.46,2.27,11.83,11.83,0,0,1-10.16-5.33q-3.76-5.33-4.26-15.34t2.34-24.51q.7-3.4,1-5.75a15.6,15.6,0,0,0,.06-2.86c-.37-.07-.65-.34-1.05-.34q-2.7,0-7.1,3.34a60.35,60.35,0,0,0-9.45,9.38,152,152,0,0,0-10.3,14.06,156.27,156.27,0,0,0-9.8,17.4q-2.85,5.82-5.47,7.82a10.91,10.91,0,0,1-6.75,2c-4.54,0-7.43-2.12-8.66-6.39s-1.24-9.7,0-16.34A110.84,110.84,0,0,1,976.46,481q1.71-5.33,3.41-9.94t3.34-9.31a74.1,74.1,0,0,0,2.77-10.8,11.57,11.57,0,0,1,3.62-6.46,10.36,10.36,0,0,1,6.89-2.2,7.79,7.79,0,0,1,6.54,3.48q2.55,3.48,1.13,10.3a34,34,0,0,1-1.49,7.17c-.31.95-.79,2-1.17,3,1.34-1.78,2.65-3.77,4-5.35q8.44-9.79,16.76-14.63t15.27-4.83q6.54,0,10.37,2.62a12.08,12.08,0,0,1,5,7.54,27.53,27.53,0,0,1-.28,11.71q-2.13,10.23-2.91,17.41a55,55,0,0,0-.29,11.58,12.07,12.07,0,0,0,2.63,6.81A12.77,12.77,0,0,1,1054.24,503.16Zm51.93-6.68a12.86,12.86,0,0,1,0,6.61,15.33,15.33,0,0,1-3.2,7.17,16.82,16.82,0,0,1-6,4.69,18,18,0,0,1-7.54,1.63,31,31,0,0,1-7-.85,15.72,15.72,0,0,1-6.76-3.56,18.83,18.83,0,0,1-5-7.81,40.45,40.45,0,0,1-2-13.49,108,108,0,0,1,2.35-20.89q2.26-10.8,4.61-20t4.91-17.47q2.55-8.31,5.68-16.27,1.84-5,4.54-7.1a10.46,10.46,0,0,1,6.68-2.13q5.4,0,7.67,4.05c1.51,2.7,1.71,7,.57,13a93.47,93.47,0,0,1-2.34,9.1q-1.5,4.83-3.27,10.58t-3.76,12.93q-2,7.17-3.7,16.12c-1,5-1.7,9-2,11.94a28.09,28.09,0,0,0-.07,6.6,3.89,3.89,0,0,0,1.42,2.85,4.28,4.28,0,0,0,2.2.63,13,13,0,0,0,2.92-.28l2.2-.5a9.54,9.54,0,0,1,2-.21Q1105.31,493.85,1106.17,496.48Zm53.7-74.8a14.41,14.41,0,0,1-4.33,7.74q-3.63,3.63-10.44,3.63c-4.84,0-8.48-1.36-10.94-4.05a11,11,0,0,1-2.56-10,12,12,0,0,1,5.26-8.1,17.52,17.52,0,0,1,9.94-2.84,14.46,14.46,0,0,1,8.17,2.13,10.78,10.78,0,0,1,4.33,5.26A11.78,11.78,0,0,1,1159.87,421.68Zm-9.87,23.8q2.48,3.33,1.34,9.73c-.37,1.89-.94,4.57-1.7,8s-1.65,7.3-2.69,11.51-2.07,8.43-3.06,12.65-1.92,8.09-2.77,11.64-1.47,6.37-1.85,8.45a12.21,12.21,0,0,1-3.27,6.61,8.76,8.76,0,0,1-6.39,2.35,12.58,12.58,0,0,1-7-1.92,10.22,10.22,0,0,1-4.19-5.19,12.74,12.74,0,0,1-.5-7q1.85-9.22,3-15.55t1.78-11q.65-4.69,1.35-8.88c.48-2.79,1-5.71,1.56-8.74a18.47,18.47,0,0,1,3.7-7.88,24.78,24.78,0,0,1,6.53-5.9,13.62,13.62,0,0,1,7.1-2.27A8.25,8.25,0,0,1,1150,445.48Zm90.35,57.68a11,11,0,0,1,.07,5.18,10,10,0,0,1-3.9,5.83,12.21,12.21,0,0,1-7.47,2.27,11.81,11.81,0,0,1-10.15-5.33q-3.76-5.33-4.26-15.34t2.34-24.51q.7-3.4,1-5.75a16.55,16.55,0,0,0,.06-2.86c-.37-.07-.65-.34-1-.34q-2.7,0-7.1,3.34a59.92,59.92,0,0,0-9.45,9.38,152,152,0,0,0-10.3,14.06,154.69,154.69,0,0,0-9.8,17.4q-2.85,5.82-5.47,7.82a11,11,0,0,1-6.75,2c-4.55,0-7.44-2.12-8.67-6.39s-1.23-9.7,0-16.34a112.86,112.86,0,0,1,3.13-12.57q1.7-5.33,3.41-9.94t3.34-9.31a74.17,74.17,0,0,0,2.76-10.8,11.64,11.64,0,0,1,3.63-6.46,10.36,10.36,0,0,1,6.89-2.2,7.81,7.81,0,0,1,6.54,3.48q2.55,3.48,1.13,10.3a34,34,0,0,1-1.49,7.17c-.32.95-.79,2-1.17,3,1.34-1.78,2.65-3.77,4-5.35q8.45-9.79,16.77-14.63t15.27-4.83q6.52,0,10.37,2.62a12.08,12.08,0,0,1,5,7.54,27.53,27.53,0,0,1-.28,11.71q-2.13,10.23-2.92,17.41a54.89,54.89,0,0,0-.28,11.58,12.07,12.07,0,0,0,2.63,6.81A12.77,12.77,0,0,1,1240.35,503.16Zm85.16-12c-.85-2-2.64-3-5.39-3a11.08,11.08,0,0,0-5.26,1.56q-2.85,1.56-6.46,3.62a39.68,39.68,0,0,1-9,3.56A51,51,0,0,1,1286,498.4q-5.4,0-8.24-1.71a7.89,7.89,0,0,1-3.69-4.69,13.66,13.66,0,0,1-.28-6.25h0s0,.05.07.07c2.6,1.95,7.17,2.91,13.71,2.91a65.79,65.79,0,0,0,12.57-1.2,45.49,45.49,0,0,0,11.5-3.84,27.12,27.12,0,0,0,9-7,23.43,23.43,0,0,0,4.89-10.3q1.58-7.95-.85-13.57a17.33,17.33,0,0,0-8-8.59q-5.54-3-13.93-3a43.67,43.67,0,0,0-17.54,3.54,53,53,0,0,0-14.7,9.53,57.59,57.59,0,0,0-10.87,13.28,45.4,45.4,0,0,0-5.75,15,35.22,35.22,0,0,0-.43,12.92,22.75,22.75,0,0,0,4.76,10.8,25,25,0,0,0,10.51,7.39q6.75,2.7,17,2.7a69.16,69.16,0,0,0,15.13-1.57,59,59,0,0,0,12.43-4.11,29.11,29.11,0,0,0,8.66-6,15.49,15.49,0,0,0,4.13-7.1A10.82,10.82,0,0,0,1325.51,491.15Zm-34.37-28.91a20.9,20.9,0,0,1,8.66-1.92q3.69,0,5,1.49t.71,4.48a8.42,8.42,0,0,1-3.76,5.11A24.92,24.92,0,0,1,1294,475a33.51,33.51,0,0,1-9.09,1.27,31.62,31.62,0,0,1-5.83-.42c-.58-.12-1-.11-1.46-.18a35.92,35.92,0,0,1,5.8-7.92A25.25,25.25,0,0,1,1291.14,462.24Z"/><polygon class="cls-3" points="911.72 489.22 892.36 473.82 909.13 442.14 931.63 445.75 941.94 465.22 1023.59 452.14 1087.59 441.29 1112.12 420.54 1134.7 420.54 1120.94 496.82 1061.25 489.29 1036.79 458.68 994.73 471.81 911.72 489.22"/><path class="cls-4" d="M957.86,443.47a37.83,37.83,0,0,0-12.08-14.2,30.69,30.69,0,0,0-18-5.26,28.43,28.43,0,0,0-11.44,2.2,22.22,22.22,0,0,0-8.1,5.76,16.92,16.92,0,0,0-3.67,7,55.33,55.33,0,0,0-8.26,4.79,67.21,67.21,0,0,0-10.44,9.09,66.51,66.51,0,0,0-9.16,12.36,47.53,47.53,0,0,0-5.62,15.34,43,43,0,0,0-.21,17.9A33.74,33.74,0,0,0,890.73,523a44.46,44.46,0,0,0,18.11,3.48,57.88,57.88,0,0,0,18.4-2.91,58.73,58.73,0,0,0,16.12-8.32,50.5,50.5,0,0,0,12.43-13,46.57,46.57,0,0,0,6.89-17,73.79,73.79,0,0,0,.93-22A57.7,57.7,0,0,0,957.86,443.47ZM941.09,482.4a26.15,26.15,0,0,1-6,12.22,32.28,32.28,0,0,1-11,8.16,31.71,31.71,0,0,1-13.35,2.92,22.86,22.86,0,0,1-11.44-2.63,14.2,14.2,0,0,1-6.46-7.53q-1.85-4.91-.43-11.72a42,42,0,0,1,4-11.72,39.09,39.09,0,0,1,7.39-9.66,63.47,63.47,0,0,1,7.9-6.31,10.41,10.41,0,0,0,2.68.41,6.76,6.76,0,0,0,4.55-1.56,7.69,7.69,0,0,0,2.41-4.69,7.14,7.14,0,0,1,1.5-3.34,3.53,3.53,0,0,1,2.77-1.2,11.67,11.67,0,0,1,8.16,3.19,22.37,22.37,0,0,1,5.55,8.52,41.53,41.53,0,0,1,2.55,11.8A49.59,49.59,0,0,1,941.09,482.4Zm113.15,30.76a11,11,0,0,1,.07,5.18,10,10,0,0,1-3.9,5.83,12.2,12.2,0,0,1-7.46,2.27,11.83,11.83,0,0,1-10.16-5.33q-3.76-5.33-4.26-15.34t2.34-24.51q.7-3.4,1-5.75a15.6,15.6,0,0,0,.06-2.86c-.37-.07-.65-.34-1.05-.34q-2.7,0-7.1,3.34a60.35,60.35,0,0,0-9.45,9.38,152,152,0,0,0-10.3,14.06,156.27,156.27,0,0,0-9.8,17.4q-2.85,5.82-5.47,7.82a10.91,10.91,0,0,1-6.75,2c-4.54,0-7.43-2.12-8.66-6.39s-1.24-9.7,0-16.34A110.84,110.84,0,0,1,976.46,491q1.71-5.33,3.41-9.94t3.34-9.31a74.1,74.1,0,0,0,2.77-10.8,11.57,11.57,0,0,1,3.62-6.46,10.36,10.36,0,0,1,6.89-2.2,7.79,7.79,0,0,1,6.54,3.48q2.55,3.48,1.13,10.3a34,34,0,0,1-1.49,7.17c-.31.95-.79,2-1.17,3,1.34-1.78,2.65-3.77,4-5.35q8.44-9.79,16.76-14.63t15.27-4.83q6.54,0,10.37,2.62a12.08,12.08,0,0,1,5,7.54,27.53,27.53,0,0,1-.28,11.71q-2.13,10.23-2.91,17.41a55,55,0,0,0-.29,11.58,12.07,12.07,0,0,0,2.63,6.81A12.77,12.77,0,0,1,1054.24,513.16Zm51.93-6.68a12.86,12.86,0,0,1,0,6.61,15.33,15.33,0,0,1-3.2,7.17,16.82,16.82,0,0,1-6,4.69,18,18,0,0,1-7.54,1.63,31,31,0,0,1-7-.85,15.72,15.72,0,0,1-6.76-3.56,18.83,18.83,0,0,1-5-7.81,40.45,40.45,0,0,1-2-13.49,108,108,0,0,1,2.35-20.89q2.26-10.8,4.61-20t4.91-17.47q2.55-8.31,5.68-16.27,1.84-5,4.54-7.1a10.46,10.46,0,0,1,6.68-2.13q5.4,0,7.67,4.05c1.51,2.7,1.71,7,.57,13a93.47,93.47,0,0,1-2.34,9.1q-1.5,4.83-3.27,10.58t-3.76,12.93q-2,7.17-3.7,16.12c-1,5-1.7,9-2,11.94a28.09,28.09,0,0,0-.07,6.6,3.89,3.89,0,0,0,1.42,2.85,4.28,4.28,0,0,0,2.2.63,13,13,0,0,0,2.92-.28l2.2-.5a9.54,9.54,0,0,1,2-.21Q1105.31,503.85,1106.17,506.48Zm53.7-74.8a14.41,14.41,0,0,1-4.33,7.74q-3.63,3.63-10.44,3.63c-4.84,0-8.48-1.36-10.94-4.05a11,11,0,0,1-2.56-10,12,12,0,0,1,5.26-8.1,17.52,17.52,0,0,1,9.94-2.84,14.46,14.46,0,0,1,8.17,2.13,10.78,10.78,0,0,1,4.33,5.26A11.78,11.78,0,0,1,1159.87,431.68Zm-9.87,23.8q2.48,3.33,1.34,9.73c-.37,1.89-.94,4.57-1.7,8s-1.65,7.3-2.69,11.51-2.07,8.43-3.06,12.65-1.92,8.09-2.77,11.64-1.47,6.37-1.85,8.45a12.21,12.21,0,0,1-3.27,6.61,8.76,8.76,0,0,1-6.39,2.35,12.58,12.58,0,0,1-7-1.92,10.22,10.22,0,0,1-4.19-5.19,12.74,12.74,0,0,1-.5-7q1.85-9.22,3-15.55t1.78-11q.65-4.69,1.35-8.88c.48-2.79,1-5.71,1.56-8.74a18.47,18.47,0,0,1,3.7-7.88,24.78,24.78,0,0,1,6.53-5.9,13.62,13.62,0,0,1,7.1-2.27A8.25,8.25,0,0,1,1150,455.48Zm90.35,57.68a11,11,0,0,1,.07,5.18,10,10,0,0,1-3.9,5.83,12.21,12.21,0,0,1-7.47,2.27,11.81,11.81,0,0,1-10.15-5.33q-3.76-5.33-4.26-15.34t2.34-24.51q.7-3.4,1-5.75a16.55,16.55,0,0,0,.06-2.86c-.37-.07-.65-.34-1-.34q-2.7,0-7.1,3.34a59.92,59.92,0,0,0-9.45,9.38,152,152,0,0,0-10.3,14.06,154.69,154.69,0,0,0-9.8,17.4q-2.85,5.82-5.47,7.82a11,11,0,0,1-6.75,2c-4.55,0-7.44-2.12-8.67-6.39s-1.23-9.7,0-16.34a112.86,112.86,0,0,1,3.13-12.57q1.7-5.33,3.41-9.94t3.34-9.31a74.17,74.17,0,0,0,2.76-10.8,11.64,11.64,0,0,1,3.63-6.46,10.36,10.36,0,0,1,6.89-2.2,7.81,7.81,0,0,1,6.54,3.48q2.55,3.48,1.13,10.3a34,34,0,0,1-1.49,7.17c-.32.95-.79,2-1.17,3,1.34-1.78,2.65-3.77,4-5.35q8.45-9.79,16.77-14.63t15.27-4.83q6.52,0,10.37,2.62a12.08,12.08,0,0,1,5,7.54,27.53,27.53,0,0,1-.28,11.71q-2.13,10.23-2.92,17.41a54.89,54.89,0,0,0-.28,11.58,12.07,12.07,0,0,0,2.63,6.81A12.77,12.77,0,0,1,1240.35,513.16Zm85.16-12c-.85-2-2.64-3-5.39-3a11.08,11.08,0,0,0-5.26,1.56q-2.85,1.56-6.46,3.62a39.68,39.68,0,0,1-9,3.56A51,51,0,0,1,1286,508.4q-5.4,0-8.24-1.71a7.89,7.89,0,0,1-3.69-4.69,13.66,13.66,0,0,1-.28-6.25h0s0,.05.07.07c2.6,1.95,7.17,2.91,13.71,2.91a65.79,65.79,0,0,0,12.57-1.2,45.49,45.49,0,0,0,11.5-3.84,27.12,27.12,0,0,0,9-7,23.43,23.43,0,0,0,4.89-10.3q1.58-7.95-.85-13.57a17.33,17.33,0,0,0-8-8.59q-5.54-3-13.93-3a43.67,43.67,0,0,0-17.54,3.54,53,53,0,0,0-14.7,9.53,57.59,57.59,0,0,0-10.87,13.28,45.4,45.4,0,0,0-5.75,15,35.22,35.22,0,0,0-.43,12.92,22.75,22.75,0,0,0,4.76,10.8,25,25,0,0,0,10.51,7.39q6.75,2.7,17,2.7a69.16,69.16,0,0,0,15.13-1.57,59,59,0,0,0,12.43-4.11,29.11,29.11,0,0,0,8.66-6,15.49,15.49,0,0,0,4.13-7.1A10.82,10.82,0,0,0,1325.51,501.15Zm-34.37-28.91a20.9,20.9,0,0,1,8.66-1.92q3.69,0,5,1.49t.71,4.48a8.42,8.42,0,0,1-3.76,5.11A24.92,24.92,0,0,1,1294,485a33.51,33.51,0,0,1-9.09,1.27,31.62,31.62,0,0,1-5.83-.42c-.58-.12-1-.11-1.46-.18a35.92,35.92,0,0,1,5.8-7.92A25.25,25.25,0,0,1,1291.14,472.24Z"/><path class="cls-21" d="M957.86,433.47a37.83,37.83,0,0,0-12.08-14.2,30.69,30.69,0,0,0-18-5.26,28.43,28.43,0,0,0-11.44,2.2,22.22,22.22,0,0,0-8.1,5.76,16.92,16.92,0,0,0-3.67,7,55.33,55.33,0,0,0-8.26,4.79,67.21,67.21,0,0,0-10.44,9.09,66.51,66.51,0,0,0-9.16,12.36,47.53,47.53,0,0,0-5.62,15.34,43,43,0,0,0-.21,17.9A33.74,33.74,0,0,0,890.73,513a44.46,44.46,0,0,0,18.11,3.48,57.88,57.88,0,0,0,18.4-2.91,58.73,58.73,0,0,0,16.12-8.32,50.5,50.5,0,0,0,12.43-13,46.57,46.57,0,0,0,6.89-17,73.79,73.79,0,0,0,.93-22A57.7,57.7,0,0,0,957.86,433.47ZM941.09,472.4a26.15,26.15,0,0,1-6,12.22,32.28,32.28,0,0,1-11,8.16,31.71,31.71,0,0,1-13.35,2.92,22.86,22.86,0,0,1-11.44-2.63,14.2,14.2,0,0,1-6.46-7.53q-1.85-4.91-.43-11.72a42,42,0,0,1,4-11.72,39.09,39.09,0,0,1,7.39-9.66,63.47,63.47,0,0,1,7.9-6.31,10.41,10.41,0,0,0,2.68.41,6.76,6.76,0,0,0,4.55-1.56,7.69,7.69,0,0,0,2.41-4.69,7.14,7.14,0,0,1,1.5-3.34,3.53,3.53,0,0,1,2.77-1.2,11.67,11.67,0,0,1,8.16,3.19,22.37,22.37,0,0,1,5.55,8.52,41.53,41.53,0,0,1,2.55,11.8A49.59,49.59,0,0,1,941.09,472.4Zm113.15,30.76a11,11,0,0,1,.07,5.18,10,10,0,0,1-3.9,5.83,12.2,12.2,0,0,1-7.46,2.27,11.83,11.83,0,0,1-10.16-5.33q-3.76-5.33-4.26-15.34t2.34-24.51q.7-3.4,1-5.75a15.6,15.6,0,0,0,.06-2.86c-.37-.07-.65-.34-1.05-.34q-2.7,0-7.1,3.34a60.35,60.35,0,0,0-9.45,9.38,152,152,0,0,0-10.3,14.06,156.27,156.27,0,0,0-9.8,17.4q-2.85,5.82-5.47,7.82a10.91,10.91,0,0,1-6.75,2c-4.54,0-7.43-2.12-8.66-6.39s-1.24-9.7,0-16.34A110.84,110.84,0,0,1,976.46,481q1.71-5.33,3.41-9.94t3.34-9.31a74.1,74.1,0,0,0,2.77-10.8,11.57,11.57,0,0,1,3.62-6.46,10.36,10.36,0,0,1,6.89-2.2,7.79,7.79,0,0,1,6.54,3.48q2.55,3.48,1.13,10.3a34,34,0,0,1-1.49,7.17c-.31.95-.79,2-1.17,3,1.34-1.78,2.65-3.77,4-5.35q8.44-9.79,16.76-14.63t15.27-4.83q6.54,0,10.37,2.62a12.08,12.08,0,0,1,5,7.54,27.53,27.53,0,0,1-.28,11.71q-2.13,10.23-2.91,17.41a55,55,0,0,0-.29,11.58,12.07,12.07,0,0,0,2.63,6.81A12.77,12.77,0,0,1,1054.24,503.16Zm51.93-6.68a12.86,12.86,0,0,1,0,6.61,15.33,15.33,0,0,1-3.2,7.17,16.82,16.82,0,0,1-6,4.69,18,18,0,0,1-7.54,1.63,31,31,0,0,1-7-.85,15.72,15.72,0,0,1-6.76-3.56,18.83,18.83,0,0,1-5-7.81,40.45,40.45,0,0,1-2-13.49,108,108,0,0,1,2.35-20.89q2.26-10.8,4.61-20t4.91-17.47q2.55-8.31,5.68-16.27,1.84-5,4.54-7.1a10.46,10.46,0,0,1,6.68-2.13q5.4,0,7.67,4.05c1.51,2.7,1.71,7,.57,13a93.47,93.47,0,0,1-2.34,9.1q-1.5,4.83-3.27,10.58t-3.76,12.93q-2,7.17-3.7,16.12c-1,5-1.7,9-2,11.94a28.09,28.09,0,0,0-.07,6.6,3.89,3.89,0,0,0,1.42,2.85,4.28,4.28,0,0,0,2.2.63,13,13,0,0,0,2.92-.28l2.2-.5a9.54,9.54,0,0,1,2-.21Q1105.31,493.85,1106.17,496.48Zm53.7-74.8a14.41,14.41,0,0,1-4.33,7.74q-3.63,3.63-10.44,3.63c-4.84,0-8.48-1.36-10.94-4.05a11,11,0,0,1-2.56-10,12,12,0,0,1,5.26-8.1,17.52,17.52,0,0,1,9.94-2.84,14.46,14.46,0,0,1,8.17,2.13,10.78,10.78,0,0,1,4.33,5.26A11.78,11.78,0,0,1,1159.87,421.68Zm-9.87,23.8q2.48,3.33,1.34,9.73c-.37,1.89-.94,4.57-1.7,8s-1.65,7.3-2.69,11.51-2.07,8.43-3.06,12.65-1.92,8.09-2.77,11.64-1.47,6.37-1.85,8.45a12.21,12.21,0,0,1-3.27,6.61,8.76,8.76,0,0,1-6.39,2.35,12.58,12.58,0,0,1-7-1.92,10.22,10.22,0,0,1-4.19-5.19,12.74,12.74,0,0,1-.5-7q1.85-9.22,3-15.55t1.78-11q.65-4.69,1.35-8.88c.48-2.79,1-5.71,1.56-8.74a18.47,18.47,0,0,1,3.7-7.88,24.78,24.78,0,0,1,6.53-5.9,13.62,13.62,0,0,1,7.1-2.27A8.25,8.25,0,0,1,1150,445.48Zm90.35,57.68a11,11,0,0,1,.07,5.18,10,10,0,0,1-3.9,5.83,12.21,12.21,0,0,1-7.47,2.27,11.81,11.81,0,0,1-10.15-5.33q-3.76-5.33-4.26-15.34t2.34-24.51q.7-3.4,1-5.75a16.55,16.55,0,0,0,.06-2.86c-.37-.07-.65-.34-1-.34q-2.7,0-7.1,3.34a59.92,59.92,0,0,0-9.45,9.38,152,152,0,0,0-10.3,14.06,154.69,154.69,0,0,0-9.8,17.4q-2.85,5.82-5.47,7.82a11,11,0,0,1-6.75,2c-4.55,0-7.44-2.12-8.67-6.39s-1.23-9.7,0-16.34a112.86,112.86,0,0,1,3.13-12.57q1.7-5.33,3.41-9.94t3.34-9.31a74.17,74.17,0,0,0,2.76-10.8,11.64,11.64,0,0,1,3.63-6.46,10.36,10.36,0,0,1,6.89-2.2,7.81,7.81,0,0,1,6.54,3.48q2.55,3.48,1.13,10.3a34,34,0,0,1-1.49,7.17c-.32.95-.79,2-1.17,3,1.34-1.78,2.65-3.77,4-5.35q8.45-9.79,16.77-14.63t15.27-4.83q6.52,0,10.37,2.62a12.08,12.08,0,0,1,5,7.54,27.53,27.53,0,0,1-.28,11.71q-2.13,10.23-2.92,17.41a54.89,54.89,0,0,0-.28,11.58,12.07,12.07,0,0,0,2.63,6.81A12.77,12.77,0,0,1,1240.35,503.16Zm85.16-12c-.85-2-2.64-3-5.39-3a11.08,11.08,0,0,0-5.26,1.56q-2.85,1.56-6.46,3.62a39.68,39.68,0,0,1-9,3.56A51,51,0,0,1,1286,498.4q-5.4,0-8.24-1.71a7.89,7.89,0,0,1-3.69-4.69,13.66,13.66,0,0,1-.28-6.25h0s0,.05.07.07c2.6,1.95,7.17,2.91,13.71,2.91a65.79,65.79,0,0,0,12.57-1.2,45.49,45.49,0,0,0,11.5-3.84,27.12,27.12,0,0,0,9-7,23.43,23.43,0,0,0,4.89-10.3q1.58-7.95-.85-13.57a17.33,17.33,0,0,0-8-8.59q-5.54-3-13.93-3a43.67,43.67,0,0,0-17.54,3.54,53,53,0,0,0-14.7,9.53,57.59,57.59,0,0,0-10.87,13.28,45.4,45.4,0,0,0-5.75,15,35.22,35.22,0,0,0-.43,12.92,22.75,22.75,0,0,0,4.76,10.8,25,25,0,0,0,10.51,7.39q6.75,2.7,17,2.7a69.16,69.16,0,0,0,15.13-1.57,59,59,0,0,0,12.43-4.11,29.11,29.11,0,0,0,8.66-6,15.49,15.49,0,0,0,4.13-7.1A10.82,10.82,0,0,0,1325.51,491.15Zm-34.37-28.91a20.9,20.9,0,0,1,8.66-1.92q3.69,0,5,1.49t.71,4.48a8.42,8.42,0,0,1-3.76,5.11A24.92,24.92,0,0,1,1294,475a33.51,33.51,0,0,1-9.09,1.27,31.62,31.62,0,0,1-5.83-.42c-.58-.12-1-.11-1.46-.18a35.92,35.92,0,0,1,5.8-7.92A25.25,25.25,0,0,1,1291.14,462.24Z"/></g></g></svg>